<?xml version="1.0" encoding="UTF-8" standalone="no"?>
<!DOCTYPE svg PUBLIC "-//W3C//DTD SVG 1.1//EN" "http://www.w3.org/Graphics/SVG/1.1/DTD/svg11.dtd">
<svg width="100%" height="100%" viewBox="0 0 250 250" version="1.1" xmlns="http://www.w3.org/2000/svg" xmlns:xlink="http://www.w3.org/1999/xlink" xml:space="preserve" xmlns:serif="http://www.serif.com/" style="fill-rule:evenodd;clip-rule:evenodd;stroke-linecap:round;stroke-linejoin:round;stroke-miterlimit:1.5;">
    <rect x="0" y="0" width="250" height="250" style="fill:rgb(211,211,211);"/>
    <g id="Avatar" transform="matrix(0.990783,0,0,0.980392,7.29493,5)">
        <g id="Body" transform="matrix(1,0,0,1,28.8,32.4)">
            <path id="path-5" d="M90,0C117.835,-0 140.4,22.565 140.4,50.4L140.401,55.949C145.508,56.807 149.4,61.249 149.4,66.6L149.4,79.2C149.4,84.647 145.367,89.152 140.125,89.893C138.265,107.718 127.114,122.78 111.601,130.149L111.6,146.7L115.2,146.7C150.988,146.7 180,175.712 180,211.5L180,219.6L0,219.6L0,211.5C-0,175.712 29.012,146.7 64.8,146.7L68.4,146.7L68.4,130.15C52.886,122.78 41.735,107.718 39.875,89.893C34.633,89.152 30.6,84.647 30.6,79.2L30.6,66.6C30.6,61.249 34.492,56.806 39.6,55.949L39.6,50.4C39.6,22.565 62.165,0 90,0Z" style="fill:rgb(208,198,172);"/>
            <clipPath id="_clip1">
                <path id="path-51" serif:id="path-5" d="M90,0C117.835,-0 140.4,22.565 140.4,50.4L140.401,55.949C145.508,56.807 149.4,61.249 149.4,66.6L149.4,79.2C149.4,84.647 145.367,89.152 140.125,89.893C138.265,107.718 127.114,122.78 111.601,130.149L111.6,146.7L115.2,146.7C150.988,146.7 180,175.712 180,211.5L180,219.6L0,219.6L0,211.5C-0,175.712 29.012,146.7 64.8,146.7L68.4,146.7L68.4,130.15C52.886,122.78 41.735,107.718 39.875,89.893C34.633,89.152 30.6,84.647 30.6,79.2L30.6,66.6C30.6,61.249 34.492,56.806 39.6,55.949L39.6,50.4C39.6,22.565 62.165,0 90,0Z"/>
            </clipPath>
            <g clip-path="url(#_clip1)">
                <g id="Colour" transform="matrix(1,0,0,1,-28.8,0)">
                    <rect x="0" y="0" width="238.384" height="220.355" style="fill:rgb(255,219,180);"/>
                </g>
            </g>
            <path id="Neck-Shadow" d="M39.6,84.6C39.6,112.435 62.165,135 90,135C117.835,135 140.4,112.435 140.4,84.6L140.4,91.8C140.4,119.635 117.835,142.2 90,142.2C62.165,142.2 39.6,119.635 39.6,91.8L39.6,84.6Z" style="fill-opacity:0.1;"/>
        </g>
        <g id="Hoodie" transform="matrix(1,0,0,1,0,153)">
            <path id="Hoodie1" serif:id="Hoodie" d="M140.401,11.764C156.691,13.587 169.2,18.597 169.2,31.569L169.194,31.18C192.467,41.01 208.8,64.047 208.8,90.9L208.8,99L28.8,99L28.8,90.9C28.8,64.047 45.133,41.01 68.406,31.18C68.653,18.496 81.073,13.568 97.2,11.764L97.2,28.8C97.2,40.729 106.871,50.4 118.8,50.4C130.729,50.4 140.4,40.729 140.4,28.8L140.401,11.764Z" style="fill:rgb(183,193,219);"/>
            <clipPath id="_clip2">
                <path id="Hoodie2" serif:id="Hoodie" d="M140.401,11.764C156.691,13.587 169.2,18.597 169.2,31.569L169.194,31.18C192.467,41.01 208.8,64.047 208.8,90.9L208.8,99L28.8,99L28.8,90.9C28.8,64.047 45.133,41.01 68.406,31.18C68.653,18.496 81.073,13.568 97.2,11.764L97.2,28.8C97.2,40.729 106.871,50.4 118.8,50.4C130.729,50.4 140.4,40.729 140.4,28.8L140.401,11.764Z"/>
            </clipPath>
            <g clip-path="url(#_clip2)">
                <rect id="Colour1" serif:id="Colour" x="0" y="0" width="238.491" height="99" style="fill:rgb(195,16,20);"/>
                <path id="Shadow" d="M155.733,11.451C169.28,14.013 178.65,19.118 178.65,29.077C178.65,46.818 148.916,61.2 118.8,61.2C88.684,61.2 58.95,46.818 58.95,29.077C58.95,19.118 68.32,14.013 81.867,11.451C73.689,14.466 68.4,19.534 68.4,27.969C68.4,46.322 93.439,61.2 118.8,61.2C144.161,61.2 169.2,46.322 169.2,27.969C169.2,19.71 164.13,14.679 156.241,11.642L155.733,11.451Z" style="fill-opacity:0.16;"/>
            </g>
            <g id="Straps" transform="matrix(1,0,0,1.61073,0,-31.962)">
                <path d="M91.8,55.565L91.8,99L85.5,99L85.499,52.335C87.483,53.514 89.592,54.594 91.8,55.565ZM152.101,52.334L152.1,88.65C152.1,90.39 150.69,91.8 148.95,91.8C147.21,91.8 145.8,90.39 145.8,88.65L145.801,55.565C148.009,54.594 150.118,53.513 152.101,52.334Z" style="fill:rgb(244,244,244);"/>
            </g>
        </g>
        <g id="Beard" transform="matrix(1,0,0,1,11.3333,15.75)">
            <path d="M57.482,77.104C60.301,102.312 81.71,111.187 107.667,111.187C133.624,111.187 154.283,102.562 157.101,77.354C157.31,79.216 158.167,110.106 158.167,112.021C158.167,139.893 135.538,162.521 107.667,162.521C79.795,162.521 57.167,139.893 57.167,112.021C57.167,110.106 57.273,78.966 57.482,77.104Z" style="fill:rgb(76,57,42);"/>
        </g>
        <g id="Face" transform="matrix(1,0,0,1,68.4,73.8)">
            <g id="Mouth" transform="matrix(1,0,0,1,1.8,46.8)">
                <path d="M31.606,13.615C32.558,22.158 39.803,28.8 48.6,28.8C57.424,28.8 64.687,22.117 65.603,13.536C65.676,12.845 64.905,11.7 63.938,11.7L33.378,11.7C32.406,11.7 31.511,12.761 31.606,13.615Z" style="fill-opacity:0.7;"/>
                <clipPath id="_clip3">
                    <path d="M31.606,13.615C32.558,22.158 39.803,28.8 48.6,28.8C57.424,28.8 64.687,22.117 65.603,13.536C65.676,12.845 64.905,11.7 63.938,11.7L33.378,11.7C32.406,11.7 31.511,12.761 31.606,13.615Z"/>
                </clipPath>
                <g clip-path="url(#_clip3)">
                    <g id="Tongue">
                        <g transform="matrix(1,0,0,1,34.2,21.6)">
                            <circle cx="9.9" cy="9.9" r="9.9" style="fill:rgb(255,79,109);"/>
                        </g>
                        <g transform="matrix(1,0,0,1,34.2,21.6)">
                            <circle cx="18.9" cy="9.9" r="9.9" style="fill:rgb(255,79,109);"/>
                        </g>
                    </g>
                    <path id="Teeth" d="M39.6,1.8L58.5,1.8C60.985,1.8 63,3.815 63,6.3L63,11.7C63,14.185 60.985,16.2 58.5,16.2L39.6,16.2C37.115,16.2 35.1,14.185 35.1,11.7L35.1,6.3C35.1,3.815 37.115,1.8 39.6,1.8Z" style="fill:white;"/>
                </g>
            </g>
            <g id="Nose" transform="matrix(1,0,0,1,25.2,36)">
                <path d="M14.4,7.2C14.4,11.176 19.235,14.4 25.2,14.4C31.165,14.4 36,11.176 36,7.2" style="fill-opacity:0.16;"/>
            </g>
            <g id="Eyes" transform="matrix(1,0,0,1,0,7.2)">
                <path id="Squint" d="M14.544,20.203C16.206,16.784 19.948,14.4 24.298,14.4C28.632,14.4 32.363,16.767 34.034,20.166C34.53,21.176 33.824,22.003 33.112,21.39C30.906,19.494 27.773,18.309 24.298,18.309C20.931,18.309 17.886,19.421 15.694,21.214C14.892,21.87 14.058,21.203 14.544,20.203Z" style="fill-opacity:0.8;"/>
                <path id="Squint1" serif:id="Squint" d="M66.744,20.203C68.406,16.784 72.148,14.4 76.498,14.4C80.832,14.4 84.563,16.767 86.234,20.166C86.73,21.176 86.024,22.003 85.312,21.39C83.106,19.494 79.973,18.309 76.498,18.309C73.131,18.309 70.086,19.421 67.894,21.214C67.092,21.87 66.258,21.203 66.744,20.203Z" style="fill-opacity:0.8;"/>
            </g>
            <g id="Eyebrows">
                <g id="Eyebrow" transform="matrix(0.996195,0.0871557,-0.0871557,0.996195,1.03375,-2.07679)">
                    <path d="M23.435,5.589C18.25,6.285 10.164,10.805 10.84,16.036C10.862,16.207 11.121,16.261 11.233,16.118C13.471,13.248 30.774,9.033 37.075,9.913C37.652,9.994 38.032,9.399 37.639,9.027C34.269,5.845 28.08,4.961 23.435,5.589" style="fill:rgb(76,57,42);"/>
                </g>
                <g id="Eyebrow1" serif:id="Eyebrow" transform="matrix(-0.996195,0.0871557,0.0871557,0.996195,153.564,-6.70476)">
                    <path d="M76.535,5.589C71.35,6.285 63.264,10.805 63.94,16.036C63.962,16.207 64.221,16.261 64.333,16.118C66.571,13.248 83.874,9.033 90.175,9.913C90.752,9.994 91.132,9.399 90.739,9.027C87.369,5.845 81.18,4.961 76.535,5.589" style="fill:rgb(76,57,42);"/>
                </g>
            </g>
        </g>
        <g id="Hair" transform="matrix(1,0,0,1,43,15)">
            <path d="M118.135,20.928C115.651,18.39 112.767,16.236 109.962,14.076C109.343,13.6 108.715,13.135 108.109,12.641C107.972,12.528 106.563,11.519 106.394,11.148C105.988,10.254 106.224,10.95 106.28,9.884C106.35,8.535 109.1,4.727 107.048,3.854C106.146,3.47 104.536,4.492 103.67,4.83C101.977,5.49 100.263,6.054 98.512,6.54C99.351,4.869 100.95,1.524 97.944,2.419C95.603,3.116 93.421,4.91 91.068,5.753C91.847,4.477 94.96,0.523 92.147,0.302C91.271,0.233 88.724,1.875 87.782,2.226C84.959,3.275 82.075,3.953 79.111,4.487C69.033,6.304 57.248,5.786 47.923,10.374C40.735,13.911 33.636,19.4 29.484,26.389C25.481,33.125 23.984,40.498 23.146,48.217C22.532,53.882 22.482,59.738 22.769,65.424C22.863,67.287 23.073,75.874 25.779,73.273C27.127,71.978 27.117,66.745 27.457,64.974C28.133,61.451 28.783,57.911 29.91,54.5C31.895,48.49 34.238,45.687 39.184,41.547C42.359,38.89 44.588,35.3 47.625,32.62C48.99,31.416 47.949,31.542 50.143,31.7C51.616,31.806 53.097,31.846 54.574,31.885C57.99,31.974 61.412,31.951 64.829,31.963C71.711,31.988 78.561,32.085 85.437,31.725C88.492,31.565 91.556,31.478 94.603,31.195C96.306,31.038 99.326,29.947 100.728,30.78C102.01,31.543 103.342,34.034 104.263,35.054C106.438,37.464 109.032,39.305 111.576,41.282C116.881,45.403 119.559,46.98 121.17,53.421C122.775,59.838 122.325,65.791 124.312,72.106C124.662,73.217 125.586,75.13 126.726,73.415C126.937,73.096 126.883,71.345 126.883,70.337C126.883,66.27 127.913,63.218 127.9,59.123C127.849,46.674 127.447,30.442 118.135,20.928Z" style="fill:rgb(31,49,64);"/>
            <clipPath id="_clip4">
                <path d="M118.135,20.928C115.651,18.39 112.767,16.236 109.962,14.076C109.343,13.6 108.715,13.135 108.109,12.641C107.972,12.528 106.563,11.519 106.394,11.148C105.988,10.254 106.224,10.95 106.28,9.884C106.35,8.535 109.1,4.727 107.048,3.854C106.146,3.47 104.536,4.492 103.67,4.83C101.977,5.49 100.263,6.054 98.512,6.54C99.351,4.869 100.95,1.524 97.944,2.419C95.603,3.116 93.421,4.91 91.068,5.753C91.847,4.477 94.96,0.523 92.147,0.302C91.271,0.233 88.724,1.875 87.782,2.226C84.959,3.275 82.075,3.953 79.111,4.487C69.033,6.304 57.248,5.786 47.923,10.374C40.735,13.911 33.636,19.4 29.484,26.389C25.481,33.125 23.984,40.498 23.146,48.217C22.532,53.882 22.482,59.738 22.769,65.424C22.863,67.287 23.073,75.874 25.779,73.273C27.127,71.978 27.117,66.745 27.457,64.974C28.133,61.451 28.783,57.911 29.91,54.5C31.895,48.49 34.238,45.687 39.184,41.547C42.359,38.89 44.588,35.3 47.625,32.62C48.99,31.416 47.949,31.542 50.143,31.7C51.616,31.806 53.097,31.846 54.574,31.885C57.99,31.974 61.412,31.951 64.829,31.963C71.711,31.988 78.561,32.085 85.437,31.725C88.492,31.565 91.556,31.478 94.603,31.195C96.306,31.038 99.326,29.947 100.728,30.78C102.01,31.543 103.342,34.034 104.263,35.054C106.438,37.464 109.032,39.305 111.576,41.282C116.881,45.403 119.559,46.98 121.17,53.421C122.775,59.838 122.325,65.791 124.312,72.106C124.662,73.217 125.586,75.13 126.726,73.415C126.937,73.096 126.883,71.345 126.883,70.337C126.883,66.27 127.913,63.218 127.9,59.123C127.849,46.674 127.447,30.442 118.135,20.928Z"/>
            </clipPath>
            <g clip-path="url(#_clip4)">
                <g id="Colour2" serif:id="Colour" transform="matrix(1,0,0,1,-43.1,-15)">
                    <rect x="0" y="0" width="239.107" height="252.406" style="fill:rgb(76,57,42);"/>
                </g>
            </g>
        </g>
        <g id="Glasses" transform="matrix(0.507911,0,0,0.507911,-11.0592,-15.7282)">
            <path d="M354.635,206.068L354.32,215.903C354.32,215.903 348.153,216.736 347.653,225.236C347.653,225.236 345.62,229.52 344.82,225.68C344.82,225.68 347.06,215.2 344.02,210C344.02,210 338.508,205.04 319.86,205.2C319.86,205.2 286.084,205.12 280.084,207.68C280.084,207.68 263.924,208.8 268.564,220.16C268.564,220.16 270.084,233.28 275.844,243.68C275.844,243.68 274.484,246.08 272.164,240C272.164,240 266.564,225.84 265.364,218.88C265.364,218.88 264.389,213.12 255.749,213.44C255.749,213.44 245.909,212.08 245.029,219.92C245.029,219.92 240.549,235.158 235.589,243.36L234.309,243.001C234.309,243.001 243.189,220.841 242.389,215.721C242.389,215.721 243.672,207.561 220.229,205.241C220.229,205.241 188.492,202.521 175.852,205.161C175.852,205.161 167.772,206.699 166.092,210.459C166.092,210.459 164.572,218.619 165.772,224.539C165.772,224.539 165.932,225.739 164.732,225.419C164.732,225.419 163.452,225.899 163.212,221.739C163.212,221.739 162.384,216.699 156.944,214.699L156.864,204.139C156.864,204.139 205.686,198.443 240.203,206.777C240.203,206.777 256.467,211.999 269.8,206.999C269.8,206.999 315.805,198.805 354.635,206.068Z"/>
            <path d="M165.254,224.079C165.254,224.079 167.379,241.204 172.879,249.454C172.879,249.454 180.754,257.204 199.754,257.079C199.754,257.079 217.004,258.454 225.004,253.454C225.004,253.454 233.254,247.954 235.504,241.454" style="fill:none;stroke:black;stroke-width:2.2px;"/>
            <g transform="matrix(-1,0,0,1,510.758,1.375)">
                <path d="M165.254,224.079C165.254,224.079 167.379,241.204 172.879,249.454C172.879,249.454 180.754,257.204 199.754,257.079C199.754,257.079 217.004,258.454 225.004,253.454C225.004,253.454 233.754,247.954 236.004,241.454" style="fill:none;stroke:black;stroke-width:2.2px;"/>
            </g>
        </g>
    </g>
</svg>
