<?xml version="1.0" encoding="UTF-8"?>
<svg xmlns="http://www.w3.org/2000/svg" xmlns:xlink="http://www.w3.org/1999/xlink" viewBox="0 0 50 50" width="50px" height="50px">
<g id="surface102412367">
<path style=" stroke:none;fill-rule:nonzero;fill:rgb(90.588236%,29.803923%,23.529412%);fill-opacity:1;" d="M 25 7.8125 C 19.917969 7.8125 12.988281 7.890625 11.582031 8.015625 C 10.003906 8.964844 6.878906 12.546875 6.847656 13.480469 L 6.847656 15.042969 C 6.847656 17.015625 8.695312 18.75 10.371094 18.75 C 12.375 18.75 14.046875 17.078125 14.046875 15.105469 C 14.046875 17.078125 15.671875 18.75 17.675781 18.75 C 19.695312 18.75 21.257812 17.078125 21.257812 15.105469 C 21.257812 17.078125 22.960938 18.75 24.980469 18.75 L 25.015625 18.75 C 27.035156 18.75 28.738281 17.078125 28.738281 15.105469 C 28.738281 17.078125 30.316406 18.75 32.320312 18.75 C 34.324219 18.75 35.953125 17.078125 35.953125 15.105469 C 35.953125 17.078125 37.625 18.75 39.628906 18.75 C 41.304688 18.75 43.148438 17.015625 43.148438 15.042969 L 43.148438 13.480469 C 43.117188 12.546875 39.992188 8.964844 38.414062 8.015625 C 33.507812 7.84375 30.082031 7.8125 25 7.8125 Z M 21.171875 18.347656 C 19.527344 21.175781 15.394531 21.210938 13.78125 18.367188 C 12.796875 20.070312 10.570312 20.730469 9.617188 20.40625 C 9.339844 23.375 9.144531 38.605469 11.167969 41.164062 C 17.097656 42.546875 33.070312 42.515625 38.832031 41.164062 C 41.167969 38.78125 40.644531 23.160156 40.382812 20.40625 C 39.429688 20.730469 37.203125 20.070312 36.234375 18.367188 C 34.605469 21.210938 30.46875 21.175781 28.828125 18.347656 C 28.320312 19.269531 27.136719 20.484375 25 20.484375 C 23.433594 20.542969 21.957031 19.699219 21.171875 18.347656 Z M 17.84375 21.875 C 19.09375 21.875 20.234375 21.875 21.609375 23.40625 C 23.875 23.171875 26.125 23.171875 28.390625 23.40625 C 29.78125 21.890625 30.90625 21.890625 32.15625 21.890625 C 36.1875 21.890625 37.15625 27.84375 38.609375 32.96875 C 39.921875 37.734375 38.171875 37.859375 36 37.859375 C 32.765625 37.734375 30.96875 35.390625 30.96875 33.03125 C 27.953125 33.53125 23.140625 33.71875 19.03125 33.03125 C 19.03125 35.390625 17.234375 37.734375 14 37.859375 C 11.828125 37.859375 10.078125 37.734375 11.390625 32.96875 C 12.84375 27.8125 13.8125 21.890625 17.84375 21.890625 Z M 25 26.371094 C 25 26.371094 22.351562 28.8125 21.875 29.664062 L 23.605469 29.597656 L 23.605469 31.109375 C 23.605469 31.199219 24.882812 31.121094 25 31.121094 C 25.699219 31.148438 26.394531 31.171875 26.394531 31.109375 L 26.394531 29.597656 L 28.125 29.664062 C 27.648438 28.808594 25 26.371094 25 26.371094 Z M 25 26.371094 "/>
</g>
</svg>
